<svg width="24" height="24" viewBox="0 0 24 24" fill="none" xmlns="http://www.w3.org/2000/svg">
<circle cx="12" cy="12" r="12" fill="#EDEDED"/>
<path d="M13.7793 6.34961C13.7793 6.73372 13.6523 7.05273 13.3984 7.30664C13.151 7.56055 12.8385 7.6875 12.4609 7.6875C12.1549 7.6875 11.9076 7.60938 11.7188 7.45312C11.5299 7.29036 11.4355 7.04948 11.4355 6.73047C11.4355 6.33984 11.5625 6.02083 11.8164 5.77344C12.0768 5.51953 12.3861 5.39258 12.7441 5.39258C13.0436 5.39258 13.291 5.47396 13.4863 5.63672C13.6816 5.79297 13.7793 6.0306 13.7793 6.34961ZM10.4199 18V17.4531C11.2467 17.2904 11.6602 17.1016 11.6602 16.8867V11.9258C11.6602 11.5026 11.6406 11.1868 11.6016 10.9785C11.569 10.7637 11.4648 10.6172 11.2891 10.5391C11.1198 10.4544 10.8301 10.3926 10.4199 10.3535V9.83594C10.8757 9.75781 11.3281 9.66016 11.7773 9.54297C12.2331 9.41927 12.6465 9.28255 13.0176 9.13281H13.4668V16.8867C13.4668 16.9648 13.5612 17.0592 13.75 17.1699C13.9453 17.2741 14.2676 17.3685 14.7168 17.4531V18H10.4199Z" fill="#757575"/>
</svg>
